<svg width="245" height="30" viewBox="0 0 245 30" fill="none" xmlns="http://www.w3.org/2000/svg">
<path fill-rule="evenodd" clip-rule="evenodd" d="M15 0C6.71573 0 0 6.71573 0 15C0 23.2843 6.71573 30 15 30C23.0159 30 29.5632 23.7123 29.979 15.8H15V14H29.9672C29.4526 6.18197 22.9482 0 15 0Z" fill="#B4CD3D"/>
<path fill-rule="evenodd" clip-rule="evenodd" d="M61.7998 15C61.7998 13.651 61.9779 12.3436 62.3118 11.1H76.8V9.3H62.9207C65.1645 3.84258 70.5334 0 76.7998 0C85.0841 0 91.7998 6.71573 91.7998 15C91.7998 16.4034 91.6071 17.7618 91.2466 19.0502H76.8002V20.8502H90.6162C88.3363 26.2278 83.0086 30 76.7998 30C68.5155 30 61.7998 23.2843 61.7998 15Z" fill="#1C7856"/>
<path fill-rule="evenodd" clip-rule="evenodd" d="M45.8994 0C37.6151 0 30.8994 6.71573 30.8994 15C30.8994 23.2843 37.6151 30 45.8994 30C54.1837 30 60.8994 23.2843 60.8994 15C60.8994 6.71573 54.1837 0 45.8994 0ZM47.8993 14.9999C47.8993 16.1045 47.0039 16.9999 45.8993 16.9999C44.7947 16.9999 43.8993 16.1045 43.8993 14.9999C43.8993 13.8953 44.7947 12.9999 45.8993 12.9999C47.0039 12.9999 47.8993 13.8953 47.8993 14.9999Z" fill="#79A841"/>
<path fill-rule="evenodd" clip-rule="evenodd" d="M111.203 18.296C110.449 19.0672 109.386 19.5135 108.172 19.5135C105.767 19.5135 103.956 17.762 103.956 15.2036C103.956 12.6452 105.767 10.8936 108.172 10.8936C109.415 10.8936 110.498 11.3612 111.256 12.166C111.614 11.2317 112.132 10.3882 112.783 9.66198C111.542 8.75822 109.954 8.23682 108.172 8.23682C103.917 8.23682 100.8 11.2006 100.8 15.2036C100.8 19.2065 103.917 22.1703 108.172 22.1703C109.904 22.1703 111.452 21.678 112.677 20.8209C112.043 20.0852 111.543 19.2349 111.203 18.296Z" fill="#343A43"/>
<path d="M112.104 15.2036C112.104 11.2006 115.221 8.23682 119.476 8.23682C123.711 8.23682 126.848 11.181 126.848 15.2036C126.848 19.2262 123.711 22.1703 119.476 22.1703C115.221 22.1703 112.104 19.2065 112.104 15.2036ZM123.691 15.2036C123.691 12.6452 121.881 10.8936 119.476 10.8936C117.071 10.8936 115.26 12.6452 115.26 15.2036C115.26 17.762 117.071 19.5135 119.476 19.5135C121.881 19.5135 123.691 17.762 123.691 15.2036Z" fill="#343A43"/>
<path d="M137.787 19.3994V21.942H127.604V19.9228L132.8 15.0146C133.992 13.8771 134.205 13.1844 134.205 12.531C134.205 11.4722 133.473 10.8582 132.048 10.8582C130.895 10.8582 129.911 11.299 129.257 12.2043L126.986 10.7401C128.025 9.22082 129.911 8.23682 132.339 8.23682C135.342 8.23682 137.342 9.7758 137.342 12.2201C137.342 13.5308 136.976 14.7234 135.091 16.4749L131.993 19.3994H137.787Z" fill="#343A43"/>
<path d="M151.86 8.32812V21.8011H149.302L142.583 13.6221V21.8011H139.501V8.32812H142.079L148.778 16.5072V8.32812H151.86Z" fill="#343A43"/>
<path d="M164.837 8.40332H154.21V10.7649H164.837V8.40332Z" fill="#343A43"/>
<path d="M164.837 13.9136H154.21V16.2752H164.837V13.9136Z" fill="#343A43"/>
<path d="M164.837 19.4243H154.21V21.7859H164.837V19.4243Z" fill="#343A43"/>
<path d="M170.76 10.8708H166.446V8.32812H178.187V10.8708H173.874V21.805H170.756V10.8708H170.76Z" fill="#343A43"/>
<path d="M199.977 8.32812L195.569 21.8011H192.219L189.256 12.6774L186.193 21.8011H182.864L178.436 8.32812H181.671L184.713 17.7982L187.89 8.32812H190.779L193.857 17.8769L196.994 8.32812H199.977Z" fill="#343A43"/>
<path d="M200.71 15.0668C200.71 11.0639 203.827 8.1001 208.082 8.1001C212.317 8.1001 215.454 11.0442 215.454 15.0668C215.454 19.0895 212.317 22.0336 208.082 22.0336C203.827 22.0336 200.71 19.0698 200.71 15.0668ZM212.298 15.0668C212.298 12.5084 210.487 10.7569 208.082 10.7569C205.677 10.7569 203.867 12.5084 203.867 15.0668C203.867 17.6253 205.677 19.3768 208.082 19.3768C210.487 19.3768 212.298 17.6253 212.298 15.0668Z" fill="#343A43"/>
<path d="M226.384 21.8055L223.786 18.0505H223.633H220.917V21.8055H217.8V8.33252H223.633C227.234 8.33252 229.486 10.1982 229.486 13.221C229.486 15.2442 228.466 16.7241 226.715 17.4759L229.738 21.8055H226.384ZM223.456 10.8712H220.913V15.5669H223.456C225.361 15.5669 226.325 14.6813 226.325 13.2171C226.325 11.7372 225.365 10.8712 223.456 10.8712Z" fill="#343A43"/>
<path d="M236.854 16.5116L235.043 18.3969V21.8055H231.945V8.33252H235.043V14.6262L241.01 8.33252H244.474L238.892 14.3389L244.8 21.8094H241.163L236.854 16.5116Z" fill="#343A43"/>
</svg>
